<svg xmlns="http://www.w3.org/2000/svg" width="47" height="42" viewBox="0 0 47 42" fill="none">
  <path fill-rule="evenodd" clip-rule="evenodd" d="M36.0739 7.28085L35.1362 8.14486C34.8443 8.40051 34.7166 8.49899 34.5163 8.58814C34.1476 8.75226 33.758 8.70037 33.4581 8.3987C33.166 8.10701 33.1089 7.73498 33.25 7.36209C33.3286 7.15416 33.417 7.01783 33.6915 6.63792L34.5271 5.53668C35.0073 4.91579 35.2299 4.6231 35.4314 4.34068C35.7302 3.95431 35.9534 3.59316 36.3943 2.81609C36.5852 2.48376 36.6053 2.44894 36.6849 2.31341C36.9312 1.89425 37.1383 1.5692 37.3619 1.26231C38.0578 0.311528 39.2399 -0.28187 40.12 0.135869C40.8144 0.463283 41.0925 1.23161 40.8061 2.35044C40.664 2.9167 40.2471 3.36629 39.2226 4.24959L38.9036 4.53338L38.3502 5.07378L36.0739 7.28085ZM29.8442 22.3077C29.608 18.2471 27.3118 14.0242 23.5587 10.6929C20.1225 7.6428 15.8689 5.74428 12.4193 5.74428C11.9362 5.74428 11.5349 6.11215 11.4848 6.63929C11.4773 7.11711 11.7793 7.52166 12.2378 7.61242C15.5042 8.27111 18.8478 9.98774 21.391 12.3147C24.0874 14.7777 25.8623 17.8038 26.0696 21.3549C26.0772 21.4948 26.0809 21.644 26.0809 21.8022C26.0809 24.9722 24.3828 27.8894 21.3556 29.8745C17.6762 32.288 12.8777 32.7144 9.44148 30.9533C5.72426 29.0769 3.30671 24.9473 3.69127 21.1709C3.94634 18.3384 7.01796 15.6584 10.7404 14.531C13.1741 13.8427 15.3839 14.2034 17.4985 15.619C18.9108 16.745 20.2027 18.5985 20.2027 19.8998C20.2027 20.233 20.1218 20.5311 19.9551 20.7972C19.167 22.1243 14.027 23.5692 11.9744 22.7423C11.2957 22.469 11.0846 22.0189 11.272 21.1652C11.4729 20.215 12.266 19.0892 12.8362 18.9202C12.992 18.8729 13.1183 18.9129 13.3009 19.0993C13.3999 19.1993 13.2821 19.8917 13.0653 20.3564C12.8772 20.7611 12.997 21.2428 13.3518 21.5113C13.711 21.7812 14.2082 21.7587 14.5402 21.4591C14.7177 21.2936 14.9036 21.0885 15.1044 20.7898C15.4443 20.2843 15.6578 19.7299 15.6747 19.1361C15.6947 18.3832 15.3975 17.6939 14.8131 17.1049C14.1714 16.4561 13.3615 16.2288 12.5283 16.4776C11.0124 16.9287 9.50344 19.1263 9.112 20.9667C8.68962 22.8718 9.5203 24.3993 11.3758 25.1465C12.9729 25.7913 15.3968 25.8633 17.8909 25.3603C20.2402 24.8856 22.2335 23.9977 22.9228 22.8383C23.8042 21.4294 23.4893 19.5635 22.2136 17.5761C22.1365 17.456 22.0614 17.3341 21.9843 17.209C21.4661 16.368 20.8585 15.382 18.9386 13.7888C16.733 11.9586 12.4091 11.3591 9.08019 12.3004C4.60952 13.6553 0.408972 17.8756 0.0359526 22.0251C-0.432316 26.6218 3.67099 31.9077 8.9678 34.5818C13.3798 36.8431 19.2227 36.3351 23.845 33.304C27.8679 30.6655 30.064 26.6529 29.8442 22.3077ZM45.8512 22.6768C46.8315 22.0657 47.1714 21.3034 46.9208 20.5594C46.5951 19.6083 45.3549 19.1765 44.2044 19.3627C43.6921 19.4454 43.2852 19.5487 42.4429 19.7899C41.862 19.955 41.6238 20.0191 41.3213 20.0864C41.1047 20.1345 40.9042 20.1709 40.7104 20.1963C40.368 20.2553 39.985 20.3095 39.2416 20.4079L37.8885 20.6015C37.4393 20.6753 37.276 20.7115 37.0745 20.8063C36.7146 20.9759 36.4939 21.29 36.4939 21.7155C36.4939 22.1543 36.7277 22.475 37.0984 22.6251C37.301 22.7072 37.4594 22.7289 37.8429 22.7564L39.0914 22.8116L42.2368 22.8679L42.9947 22.8773L43.4154 22.9046C44.7598 23.0082 45.354 22.9857 45.8512 22.6768ZM41.6135 41.1926C42.024 40.3043 41.4412 39.112 40.5045 38.4062C40.0838 38.0922 39.7304 37.8715 38.9686 37.4251C38.7727 37.31 38.7271 37.2831 38.6395 37.231C38.1172 36.9205 37.7819 36.7001 37.4693 36.4499C37.1808 36.2386 36.839 35.9721 36.2862 35.532L35.1993 34.6855C34.8289 34.4089 34.6897 34.3159 34.4832 34.2356C34.1125 34.0913 33.7414 34.15 33.4525 34.4469C33.1563 34.7505 33.1055 35.1404 33.2655 35.511C33.3532 35.7141 33.4527 35.8465 33.7033 36.1397L34.548 37.0797L36.7357 39.3983L37.2648 39.9553L37.5421 40.2788C38.4126 41.3135 38.8598 41.7389 39.4179 41.8881C40.5299 42.1768 41.2911 41.8939 41.6135 41.1926Z" fill="#555555"/>
</svg>