<svg width="78" height="25" viewBox="0 0 78 25" fill="none" xmlns="http://www.w3.org/2000/svg">
<path d="M6.07786 24.33C4.31786 24.33 2.98686 23.835 2.08486 22.845C1.18286 21.833 0.731859 20.392 0.731859 18.522V17.202H4.16386V18.786C4.16386 20.282 4.79086 21.03 6.04486 21.03C6.66086 21.03 7.12286 20.854 7.43086 20.502C7.76086 20.128 7.92586 19.534 7.92586 18.72C7.92586 17.752 7.70586 16.905 7.26586 16.179C6.82586 15.431 6.01186 14.54 4.82386 13.506C3.32786 12.186 2.28286 10.998 1.68886 9.942C1.09486 8.864 0.797859 7.654 0.797859 6.312C0.797859 4.486 1.25986 3.078 2.18386 2.088C3.10786 1.076 4.44986 0.569999 6.20986 0.569999C7.94786 0.569999 9.25686 1.076 10.1369 2.088C11.0389 3.078 11.4899 4.508 11.4899 6.378V7.335H8.05786V6.147C8.05786 5.355 7.90386 4.783 7.59586 4.431C7.28786 4.057 6.83686 3.87 6.24286 3.87C5.03286 3.87 4.42786 4.607 4.42786 6.081C4.42786 6.917 4.64786 7.698 5.08786 8.424C5.54986 9.15 6.37486 10.03 7.56286 11.064C9.08086 12.384 10.1259 13.583 10.6979 14.661C11.2699 15.739 11.5559 17.004 11.5559 18.456C11.5559 20.348 11.0829 21.8 10.1369 22.812C9.21286 23.824 7.85986 24.33 6.07786 24.33ZM18.3562 24.33C16.5962 24.33 15.2652 23.835 14.3632 22.845C13.4612 21.833 13.0102 20.392 13.0102 18.522V17.202H16.4422V18.786C16.4422 20.282 17.0692 21.03 18.3232 21.03C18.9392 21.03 19.4012 20.854 19.7092 20.502C20.0392 20.128 20.2042 19.534 20.2042 18.72C20.2042 17.752 19.9842 16.905 19.5442 16.179C19.1042 15.431 18.2902 14.54 17.1022 13.506C15.6062 12.186 14.5612 10.998 13.9672 9.942C13.3732 8.864 13.0762 7.654 13.0762 6.312C13.0762 4.486 13.5382 3.078 14.4622 2.088C15.3862 1.076 16.7282 0.569999 18.4882 0.569999C20.2262 0.569999 21.5352 1.076 22.4152 2.088C23.3172 3.078 23.7682 4.508 23.7682 6.378V7.335H20.3362V6.147C20.3362 5.355 20.1822 4.783 19.8742 4.431C19.5662 4.057 19.1152 3.87 18.5212 3.87C17.3112 3.87 16.7062 4.607 16.7062 6.081C16.7062 6.917 16.9262 7.698 17.3662 8.424C17.8282 9.15 18.6532 10.03 19.8412 11.064C21.3592 12.384 22.4042 13.583 22.9762 14.661C23.5482 15.739 23.8342 17.004 23.8342 18.456C23.8342 20.348 23.3612 21.8 22.4152 22.812C21.4912 23.824 20.1382 24.33 18.3562 24.33Z" fill="#555555"/>
<path d="M25.9155 0.899998H31.3935C33.2635 0.899998 34.6275 1.34 35.4855 2.22C36.3435 3.078 36.7725 4.409 36.7725 6.213V7.137C36.7725 8.325 36.5745 9.293 36.1785 10.041C35.8045 10.789 35.2215 11.328 34.4295 11.658V11.724C36.2335 12.34 37.1355 13.946 37.1355 16.542V18.522C37.1355 20.304 36.6625 21.668 35.7165 22.614C34.7925 23.538 33.4285 24 31.6245 24H25.9155V0.899998ZM30.9645 10.305C31.6905 10.305 32.2295 10.118 32.5815 9.744C32.9555 9.37 33.1425 8.743 33.1425 7.863V6.576C33.1425 5.74 32.9885 5.135 32.6805 4.761C32.3945 4.387 31.9325 4.2 31.2945 4.2H29.5455V10.305H30.9645ZM31.6245 20.7C32.2625 20.7 32.7355 20.535 33.0435 20.205C33.3515 19.853 33.5055 19.259 33.5055 18.423V16.41C33.5055 15.354 33.3185 14.628 32.9445 14.232C32.5925 13.814 31.9985 13.605 31.1625 13.605H29.5455V20.7H31.6245ZM44.5043 24.33C42.7223 24.33 41.3583 23.824 40.4123 22.812C39.4663 21.8 38.9933 20.37 38.9933 18.522V6.378C38.9933 4.53 39.4663 3.1 40.4123 2.088C41.3583 1.076 42.7223 0.569999 44.5043 0.569999C46.2863 0.569999 47.6503 1.076 48.5963 2.088C49.5423 3.1 50.0153 4.53 50.0153 6.378V18.522C50.0153 20.37 49.5423 21.8 48.5963 22.812C47.6503 23.824 46.2863 24.33 44.5043 24.33ZM44.5043 21.03C45.7583 21.03 46.3853 20.271 46.3853 18.753V6.147C46.3853 4.629 45.7583 3.87 44.5043 3.87C43.2503 3.87 42.6233 4.629 42.6233 6.147V18.753C42.6233 20.271 43.2503 21.03 44.5043 21.03ZM57.7172 24.33C55.9352 24.33 54.5712 23.824 53.6252 22.812C52.6792 21.8 52.2062 20.37 52.2062 18.522V6.378C52.2062 4.53 52.6792 3.1 53.6252 2.088C54.5712 1.076 55.9352 0.569999 57.7172 0.569999C59.4992 0.569999 60.8632 1.076 61.8092 2.088C62.7552 3.1 63.2282 4.53 63.2282 6.378V18.522C63.2282 20.37 62.7552 21.8 61.8092 22.812C60.8632 23.824 59.4992 24.33 57.7172 24.33ZM57.7172 21.03C58.9712 21.03 59.5982 20.271 59.5982 18.753V6.147C59.5982 4.629 58.9712 3.87 57.7172 3.87C56.4632 3.87 55.8362 4.629 55.8362 6.147V18.753C55.8362 20.271 56.4632 21.03 57.7172 21.03ZM65.6831 0.899998H69.3131V10.635L73.9331 0.899998H77.5631L73.2401 9.381L77.6291 24H73.8341L70.7651 13.704L69.3131 16.641V24H65.6831V0.899998Z" fill="#A076F2"/>
</svg>
